<svg enable-background="new 0 0 54.7 79.5" viewBox="0 0 54.7 79.5" xmlns="http://www.w3.org/2000/svg"><g fill="#de3b57"><path d="m33.6 41.7c.2.6.5 1.1.9 1.5s.9.8 1.4 1.1c.6.3 1.2.4 1.9.4s1.5-.2 2.2-.5c.7-.4 1.3-.8 1.8-1.4l3.7 3.2c-.9 1.1-2 1.9-3.3 2.6s-2.8 1-4.4 1c-.9 0-1.7-.1-2.6-.3-.8-.2-1.6-.5-2.3-.8-.7-.4-1.4-.8-2-1.4s-1.1-1.2-1.6-1.9c-.4-.7-.8-1.5-1-2.4s-.4-1.9-.4-2.9c0-.9.1-1.8.3-2.6s.5-1.6.9-2.3.8-1.4 1.4-2 1.2-1.1 1.9-1.5 1.5-.8 2.4-1 1.9-.4 2.9-.4c1.4 0 2.7.3 4.1.9s2.6 1.5 3.6 2.7l-3.7 3.2c-.2-.2-.5-.5-.7-.7s-.6-.4-.9-.6-.7-.4-1.1-.5c-.3-.1-.8-.1-1.2-.1-.5 0-.9.1-1.4.2-.4.1-.9.3-1.2.6-.4.3-.7.6-1 1s-.5.8-.7 1.4c-.2.5-.2 1.1-.2 1.7s.1 1.2.3 1.8zm4-15c-7.2 0-13.1 5.8-13.1 13.1s5.8 13.1 13.1 13.1c7.2 0 13.1-5.8 13.1-13.1s-5.9-13.1-13.1-13.1z"/><path d="m8.8 39.9c8.3-13.1 19.2-19.4 30.1-18.9v-14.5c-18.5.2-33.3 15.2-33.1 33.6.1 18.2 14.9 32.9 33.1 33.1v-14.5c-10.9.4-21.8-5.8-30.1-18.8z"/></g></svg>