<svg viewBox="0 0 206 70.2" xmlns="http://www.w3.org/2000/svg"><g fill="#fff"><path d="m60.2 25.1h12.7v3.5h-8.8v4.8h7.1v3.5h-7.1v4.6h9.4v3.5h-13.3zm33.6 0v19.9h-4.1l-8.7-13.2h-.1v13.2h-3.9v-19.9h3.9l8.9 13.4v-13.4zm8.5 3.5h-5.5v-3.5h14.9v3.5h-5.5v16.4h-3.9zm16.3 6.1h2.8c1.2 0 2.1-.3 2.8-.8.6-.6 1-1.3 1-2.2s-.3-1.7-.9-2.2-1.5-.8-2.6-.8h-2.9v6zm6.7 10.3-4.5-6.8h-2.3v6.8h-3.9v-19.9h7.5c1.2 0 2.2.2 3.1.5s1.6.8 2.2 1.4 1 1.3 1.2 2.1c.3.8.4 1.7.4 2.7s-.2 2-.5 2.8-.8 1.5-1.4 2-1.3.9-2.2 1.2v.1l5.1 7.1z"/><path d="m142.4 38.2-4.2-11.2-4.2 11.2zm.6 1.5h-9.6l-2 5.3h-1.7l7.6-19.9h1.7l7.7 19.9h-1.7zm7.1-14.6h1.5v18.4h10.5v1.5h-12zm15.5 0h1.6v19.9h-1.6zm8.9 19.3c-1.2-.5-2.3-1.3-3.2-2.3l1-1.2c.7.9 1.6 1.5 2.7 2s2.1.7 3.2.7c1.4 0 2.5-.3 3.4-1s1.3-1.5 1.3-2.6c0-1.2-.5-2.2-1.4-2.9-.5-.4-1.5-.8-2.9-1.4-.4-.2-.6-.2-.7-.3-1.6-.6-2.6-1.1-3.2-1.4-1.5-.9-2.4-1.9-2.6-3.3 0-.2-.1-.5-.1-.8 0-.7.2-1.4.5-2s.7-1.2 1.2-1.6 1.2-.8 1.9-1c.7-.3 1.5-.4 2.3-.4 1 0 2.1.2 3.1.6s2 .9 2.9 1.6l-1 1.3c-.8-.6-1.6-1.1-2.5-1.4s-1.7-.5-2.6-.5c-.5 0-1 .1-1.5.2s-.9.4-1.3.6c-.4.3-.7.6-1 1.1-.2.4-.4.9-.4 1.5 0 1.1.5 1.9 1.4 2.6.5.3 1.4.8 2.7 1.3.2.1.4.1.5.2 1.6.6 2.7 1.1 3.1 1.3 1.3.7 2.2 1.5 2.6 2.4.3.6.4 1.3.4 2.1 0 1.1-.3 2-.9 2.8s-1.3 1.4-2.3 1.9c-1 .4-2 .6-3.2.6-1 0-2.2-.2-3.4-.7zm15.5.2c-.4-.4-.6-.9-.6-1.5 0-.4.1-.7.3-1s.4-.6.8-.8c.3-.2.7-.3 1.1-.3.6 0 1.1.2 1.5.6s.6.9.6 1.5-.2 1.1-.6 1.5-.9.6-1.5.6c-.7 0-1.2-.2-1.6-.6zm-129.7 9h.8v3.3h3.6v-3.3h.9v6.9h-.9v-2.8h-3.6v2.8h-.8zm11.8 3.5h1.4c1.1 0 1.6-.6 1.6-1.4 0-.9-.6-1.3-1.5-1.3h-1.5zm3 3.4-1.8-2.6h-1.3v2.6h-.8v-6.9h2.5c1.6 0 2.3.9 2.3 2.1s-.6 1.8-1.6 2.1l1.8 2.7zm16 .1c-1.9 0-3.4-1.2-3.4-3.5 0-2 1.2-3.6 3.4-3.6 1 0 1.9.4 2.7 1.3l-.6.5c-.5-.7-1.3-1-2.1-1-1.6 0-2.6 1.1-2.6 2.7s1.1 2.7 2.6 2.7c.9 0 1.6-.4 2.1-1l.6.5c-.6.8-1.5 1.4-2.7 1.4zm13.6-3.5c0-1.6-1.1-2.7-2.6-2.7s-2.6 1.2-2.6 2.7 1.1 2.7 2.6 2.7 2.6-1.1 2.6-2.7zm-6 0c0-2 1.4-3.5 3.5-3.5 2 0 3.4 1.4 3.4 3.5s-1.5 3.5-3.4 3.5c-2.1 0-3.5-1.5-3.5-3.5zm17.8-3.5v6.9h-.8l-3.9-5.4v5.4h-.9v-6.9h.9l3.9 5.5v-5.5zm5.2 5.9.5-.7c.5.6 1.2.9 1.9.9.8 0 1.4-.4 1.4-1.1 0-.8-.6-1-1.6-1.3-1-.4-2.1-.8-2.1-2 0-1 .9-1.8 2.1-1.8.8 0 1.5.3 2.2.8l-.5.7c-.6-.5-1.2-.7-1.7-.7-.6 0-1.2.4-1.2 1 0 .7.6.9 1.5 1.2 1.2.5 2.1.8 2.1 2.1s-1.1 2-2.3 2c-.7 0-1.6-.3-2.3-1.1zm10-1.8v-4.1h.8v4c0 1.3.7 2.1 1.8 2.1s1.8-.8 1.8-2.1v-4h.8v4.1c0 1.8-1 2.9-2.7 2.9-1.5 0-2.5-1-2.5-2.9zm10.9-4.1h.8v6.2h3.4v.7h-4.2zm10.3.8h-2.1v-.8h5v.8h-2.1v6.1h-.8zm8-.8h.9v6.9h-.9zm12.2 0v6.9h-.9l-3.8-5.4h-.1v5.4h-.8v-6.9h.8l3.9 5.5v-5.5zm11.5 3.4v2.7c-.6.6-1.6.9-2.7.9-2 0-3.5-1.4-3.5-3.5 0-2 1.3-3.5 3.4-3.5.9 0 1.9.3 2.6 1.1l-.6.5c-.5-.5-1.2-.8-2-.8-1.5 0-2.5 1.1-2.5 2.7s1 2.7 2.6 2.7c.7 0 1.3-.1 1.8-.5v-1.5h-2v-.8zm-146.7-20c.2.6.5 1.1.9 1.6s.9.8 1.5 1.1 1.3.4 2 .4c.8 0 1.5-.2 2.3-.6s1.4-.9 1.9-1.5l3.9 3.3c-.9 1.1-2.1 2-3.5 2.7s-2.9 1.1-4.6 1.1c-.9 0-1.8-.1-2.7-.3s-1.7-.5-2.5-.9-1.5-.9-2.1-1.4-1.2-1.2-1.7-2c-.5-.7-.8-1.6-1.1-2.5-.3-1-.4-2-.4-3.1 0-.9.1-1.9.3-2.7.2-.9.5-1.7.9-2.5s.9-1.5 1.5-2.1 1.3-1.2 2-1.6c.8-.4 1.6-.8 2.6-1s2-.4 3.1-.4c1.4 0 2.9.3 4.3 1 1.4.6 2.7 1.6 3.8 2.9l-3.8 3.5c-.2-.3-.5-.5-.8-.7s-.6-.4-1-.6-.8-.4-1.2-.5-.9-.2-1.3-.2c-.5 0-1 .1-1.4.2-.5.1-.9.3-1.3.6s-.8.6-1.1 1-.5.9-.7 1.4c-.2.6-.3 1.2-.3 1.8.1.8.2 1.4.5 2zm4.2-15.8c-7.6 0-13.8 6.2-13.8 13.8s6.2 13.8 13.8 13.8 13.7-6.2 13.7-13.8-6.1-13.8-13.7-13.8z"/><path d="m11.7 35.1c8.7-13.7 20.3-20.3 31.7-19.9v-15.2c-19.4.2-35 16-34.9 35.4.1 19.2 15.7 34.7 34.8 34.8v-15.2c-11.3.4-22.9-6.2-31.6-19.9z"/></g></svg>