<svg viewBox="0 0 576 512" xmlns="http://www.w3.org/2000/svg"><path d="m480 0h-64c-40.7 0-77.5 15.7-105.8 40.8 25.4 32 40.9 72.2 41.6 116 73.1-14.8 128.2-79.3 128.2-156.8zm-224 160v112c0 8.8 7.2 16 16 16h32c8.8 0 16-7.2 16-16v-112c0-88.4-71.6-160-160-160h-64c0 88.4 71.6 160 160 160zm309.3 168.1c-11.8-10.7-30.2-10-42.6 0l-92.4 73.9c-11.3 9.1-25.4 14-40 14h-118.3c-8.8 0-16-7.2-16-16s7.2-16 16-16h78.3c15.9 0 30.7-10.9 33.3-26.6 3.3-20-12.1-37.4-31.6-37.4h-160c-27 0-53.1 9.3-74.1 26.3l-46.5 37.7h-55.4c-8.8 0-16 7.2-16 16v96c0 8.8 7.2 16 16 16h356.8c14.5 0 28.6-4.9 40-14l151.2-121c15.2-12.1 16.4-35.3 1.3-48.9z" fill="#de3b57"/></svg>