<svg viewBox="0 0 640 512" xmlns="http://www.w3.org/2000/svg"><path d="m80 96c26.5 0 48-21.5 48-48s-21.5-48-48-48-48 21.5-48 48 21.5 48 48 48zm48 240c0-26.5-21.5-48-48-48s-48 21.5-48 48 21.5 48 48 48 48-21.5 48-48zm-32 80h-32c-35.3 0-64 28.7-64 64v16c0 8.8 7.2 16 16 16h128c8.8 0 16-7.2 16-16v-16c0-35.3-28.7-64-64-64zm520-384h-368c-13.3 0-24 10.7-24 24v112c0 13.3 10.7 24 24 24h368c13.3 0 24-10.7 24-24v-112c0-13.3-10.7-24-24-24zm-40 96h-64v-32h64zm-480 0h-32c-35.3 0-64 28.7-64 64v16c0 8.8 7.2 16 16 16h128c8.8 0 16-7.2 16-16v-16c0-35.3-28.7-64-64-64zm520 192h-368c-13.3 0-24 10.7-24 24v112c0 13.3 10.7 24 24 24h368c13.3 0 24-10.7 24-24v-112c0-13.3-10.7-24-24-24zm-40 96h-224v-32h224z" fill="#fff"/></svg>