<svg viewBox="0 0 640 512" xmlns="http://www.w3.org/2000/svg"><path d="m208 352h-3.81c-13.93 4.83-28.64 8-44.19 8s-30.26-3.17-44.19-8h-3.81c-61.86 0-112 50.14-112 112 0 26.51 21.49 48 48 48h224c26.51 0 48-21.49 48-48 0-61.86-50.14-112-112-112zm384-352h-384c-26.47 0-48 22.25-48 49.59v46.41c23.42 0 45.1 6.78 64 17.8v-49.8h352v288h-268.24c19.1 16.69 33.12 38.73 39.69 64h244.55c26.47 0 48-22.25 48-49.59v-316.82c0-27.34-21.53-49.59-48-49.59zm-432 320c53.02 0 96-42.98 96-96s-42.98-96-96-96-96 42.98-96 96 42.98 96 96 96zm168.97-152.97c-9.37-9.37-24.57-9.37-33.94 0l-14.75 14.75c4.68 13.29 7.72 27.35 7.72 42.21 0 6.83-.98 13.41-2.02 19.95l26.02-26 55.03 55.03c9.37 9.37 24.57 9.37 33.94 0l72-72 24.3 24.3c11.34 11.34 30.73 3.31 30.73-12.73v-88.54c0-6.63-5.37-12-12-12h-88.54c-16.04 0-24.07 19.39-12.73 30.73l24.3 24.3-55.03 55.03z" fill="#de3b57"/></svg>