<?xml version="1.0" encoding="utf-8"?>
<!-- Generator: Adobe Illustrator 19.0.0, SVG Export Plug-In . SVG Version: 6.00 Build 0)  -->
<svg version="1.1" id="Layer_1" xmlns="http://www.w3.org/2000/svg" xmlns:xlink="http://www.w3.org/1999/xlink" x="0px" y="0px"
	 viewBox="-826 -206 1418.4 1203" style="enable-background:new -826 -206 1418.4 1203;" xml:space="preserve">
<style type="text/css">
	.st0{fill:#3F4D90;}
	.st1{fill:none;stroke:#D2AA92;stroke-width:6;stroke-linecap:round;stroke-miterlimit:10;}
	.st2{fill:#D2AA92;}
	.st3{fill:#D8BAA3;}
	.st4{fill:#FFB000;}
	.st5{fill:#FFCFC9;}
	.st6{fill:#FAB6AD;}
	.st7{fill:#F0E1D4;}
	.st8{fill:#424D76;}
	.st9{fill:#475CA9;}
	.st10{fill:none;stroke:#475CA9;stroke-width:4;stroke-miterlimit:10;}
	.st11{fill:#FFFFFF;stroke:#FFB000;stroke-width:5;stroke-miterlimit:10;}
	.st12{fill:none;stroke:#FFB000;stroke-width:6;stroke-linecap:round;stroke-miterlimit:10;}
	.st13{fill:#FFFFFF;stroke:#FFB000;stroke-width:6;stroke-linecap:round;stroke-miterlimit:10;}
	.st14{fill:none;stroke:#6562CF;stroke-width:6;stroke-linecap:round;stroke-miterlimit:10;}
	.st15{fill:#FFFFFF;stroke:#6562CF;stroke-width:5;stroke-miterlimit:10;}
	.st16{fill:#D1D1FF;stroke:#6562CF;stroke-width:5;stroke-miterlimit:10;}
	.st17{fill:none;stroke:#6562CF;stroke-width:5;stroke-miterlimit:10;}
	.st18{fill:#B53550;}
	.st19{fill:#B65A18;}
	.st20{fill:#E5E6FF;}
	.st21{fill:#333B63;}
	.st22{fill:#DA3D58;}
	.st23{fill:#C36F0B;}
	.st24{fill:#3F4D79;}
	.st25{fill:#FFC033;}
	.st26{fill:none;stroke:#A55F2B;stroke-width:4;stroke-linecap:round;stroke-miterlimit:10;}
	.st27{fill:none;stroke:#3F4D79;stroke-width:4;stroke-miterlimit:10;}
	.st28{fill:#FFFFFF;stroke:#6562CF;stroke-width:6;stroke-miterlimit:10;}
</style>
<g id="Layer_2_1_">
	<g id="Слой_1_1_">
		<g id="_3">
			<g id="LEGS_1_">
				<g id="RIGHT_1_">
					<g id="SHOE">
						<path class="st0" d="M-321.1,893.7c1.7,13-17.5,36-17.5,48.5c0,4.6,17.5,10.8,33.7,18.8c19.9,9.8,39.1,21.1,46,21.1h44.5
							c0,0,0.1-25.7-25.1-29.7c-27.1-4.3-41.5-59.5-41.5-59.5L-321.1,893.7z"/>
						<path class="st1" d="M-339.7,943.9c19.9,9.8,73.9,39.1,80.8,39.1h44.5"/>
						<line class="st1" x1="-276.2" y1="937.8" x2="-260" y2="931.5"/>
						<line class="st1" x1="-285.3" y1="927.9" x2="-265.4" y2="920.6"/>
					</g>
					<path id="PANT" class="st2" d="M-406.5,432.5c0,0,172-6.2,245.1,38.8c32.1,19.8-108.1,427.8-108.1,427.8s-45.7,0.8-70-11.4
						c0,0-32.9-224.7,48.6-313.6c0,0-188.4,26.2-272.3-33.6L-406.5,432.5z"/>
				</g>
				<g id="LEFT_1_">
					<g id="SHOE-2">
						<path class="st0" d="M-196.2,900c1.7,13-16.6,36-16.6,48.5c0,4.6,16.6,10.8,32.8,18.8c19.9,9.8,39.1,21.1,46,21.1h44.5
							c0,0,0-25.7-25.1-29.7c-27.1-4.3-41.5-59.5-41.5-59.5L-196.2,900z"/>
						<path class="st1" d="M-213.8,950.2c19.9,9.8,73,39.1,79.9,39.1h44.5"/>
						<line class="st1" x1="-143.1" y1="941.4" x2="-135" y2="937.8"/>
						<line class="st1" x1="-152.2" y1="931.5" x2="-140.5" y2="927"/>
					</g>
					<path id="PANT-2" class="st3" d="M-588.3,553.4c103.4,80.1,354.6,45.9,354.6,45.9s-46.4,81.7,22.1,307.1c0,0,32,5.3,65.5,0
						c0,0,4.6-169.3,28.9-351.1c4.6-34.3-117.2-87.7-303.7-94.9L-588.3,553.4z"/>
				</g>
			</g>
			<g id="HEAD_1_">
				<path id="HAIR_1_" class="st4" d="M-636.2-7.1c-7.9-8.4-41.6-61.1-24.1-101.1c17.5-40,56.3-46.6,80.2-37.6
					c0,0,21.6-8.6,53.7,21.6c30.8,29.1,48.2,65.2,33.7,87.3c-18.2,27.9-24.1,27-32.8,38.4c-7.7,10.1-27.1,36.9-52.8,23.2
					C-606.5,9.7-636.2-7.1-636.2-7.1z"/>
				<g id="NECK_1_">
					<path class="st5" d="M-627.4-18.9c-17.8,32.2-36.1,53-36.1,53l73.6,34c0,0,12.2-36.7,18-48.8c4.1-8.5-27.8-31.6-38.2-53.3
						c-5.9-12.2-11.4-14.4-13.9-13.1C-637.9-40-627.4-18.9-627.4-18.9z"/>
					<path class="st6" d="M-614-18.4c-0.7,2.9-2.6,18.3,6.5,25.5c5.7,4.5,19.1,12.9,32.6,19.2c-3,7.2-6.7,17.6-9.6,25.3
						c-11.9-7.5-26.7-20.1-30.9-39C-619.7-7.2-614-18.4-614-18.4z"/>
				</g>
				<path id="HEAD-2_1_" class="st5" d="M-614-18.4c-0.7,2.9-2.6,18.3,6.5,25.5s38.3,24.4,55.1,27s36-46.7,37.3-65.8
					c1.3-19.1,6.9-68.1-32.1-68.1C-564.3-99.9-610.7-32.4-614-18.4z"/>
			</g>
			<g id="SHIRT">
				<path class="st7" d="M-421,460.3c0,0,12.2-13.3,14.5-27.8c0,0-107.3-81.8-158-330.4l-5.4-0.5
					C-569.8,101.7-577.5,302.2-421,460.3z"/>
				<path class="st8" d="M-564.6,101.7c36.7,19.7,101.7,147.7,101.7,147.7l-58.4,62.5C-481.6,390.6-421,460.3-421,460.3
					c-52.6,70.8-167.3,93.1-167.3,93.1s-145.6-117.6-145.6-322c0-108.6,36.2-146.6,45.3-159.2L-564.6,101.7z"/>
				<path class="st9" d="M-695.1,70.9c0,0,67,26.3,130.6,31.2c0,0-0.8-25.9-6.7-31.2c-5.9-5.3-79.1-41.1-93.5-38.6
					C-679.2,34.8-695.1,70.9-695.1,70.9z"/>
			</g>
			<g id="HAND_1_">
				<line class="st10" x1="-593.1" y1="255.9" x2="-521.2" y2="311.9"/>
				<path class="st11" d="M-194.1,298.2c15.6-1.3,28.9-11.7,33.8-26.6l48.8-146.7c4.9-14.8,18.2-26.1,33.7-27.4l-78.4,6.4
					c-15.6,1.3-28.8,12.5-33.7,27.4L-238.7,278c-4.9,14.8-15.1,25.1-30.7,26.3L-194.1,298.2z"/>
				<path class="st11" d="M-191.7,303.7c15.6-0.2,29.7-9.6,35.7-24.1l59.1-142.9c6-14.4,20-23.9,35.7-24.1l-78.7,0.8
					c-15.6,0.2-29.7,9.6-35.7,24.1l-59.1,142.9c-6,14.5-20,23.9-35.7,24.1L-191.7,303.7z"/>
				<path class="st5" d="M-488.3,332.4c0,0,16.7,20.1,56.7,20c19.2,0,174.2-116.2,174.2-116.2s40.7-4.5,52-12.3
					c11.4-7.8,31.3-49.6,29.7-55.8c-6.9,0.4-13,4.8-15.6,11.2c-4.2,9.7-19.9,10.4-19.9,10.4l3.4-11.8c0,0-14.8,2.1-26,2.5
					s-26.6,27.7-29.4,28.8s-166.6,62.7-175.9,69C-448.5,284.5-488.3,332.4-488.3,332.4z"/>
				<path class="st9" d="M-436.1,273.2c2.4-3-19.6-23.9-26.7-23.7c-7.1,0.1-64.3,57.6-59.5,68.3c4.8,10.7,22.7,25.5,31.2,18.9
					C-482.7,330-436.1,273.2-436.1,273.2z"/>
			</g>
			<g id="CHAIR_1_">
				<path class="st12" d="M-778,242.2c0,0,28.1,257.4,185.7,334.6c95.3,46.7,200.6,52.9,268.9,50.4"/>
				<path class="st12" d="M-741.3,388.4h86.4c88.8,0,164.6,64.2,179.1,151.8l13,77.8"/>
				<path class="st12" d="M-445.1,620.8v214.7c0,13.2-7,25.3-18.3,32l-46.6,27.2c-11.4,6.6-18.3,18.8-18.3,32"/>
				<circle class="st13" cx="-528" cy="957.5" r="19.8"/>
				<path class="st12" d="M-546.3,934.6c10.1-10.1,26.4-10.1,36.5,0"/>
				<path class="st12" d="M-432.5,623.1v212.4c0,13.2,7,25.3,18.3,32l46.6,27.2c11.4,6.6,18.3,18.8,18.3,32"/>
				<circle class="st13" cx="-349.6" cy="957.5" r="19.8"/>
				<path class="st12" d="M-331.3,934.6c-10.1-10.1-26.4-10.1-36.5,0"/>
			</g>
		</g>
	</g>
</g>
<g id="Layer_2_2_">
	<g id="Слой_1_2_">
		<g id="_4_1_">
			<g id="CHAIR_2_">
				<path class="st14" d="M378.5,619.9v163.2c0,50.3,26,96.9,68.8,123.3l60.2,37.1"/>
				<path class="st14" d="M345.8,619.9v163.2c0,50.3-26,96.9-68.8,123.3l-60.2,37.1"/>
				<path class="st15" d="M378.8,619.9h-36.3c-16.7,0-30.2-13.5-30.2-30.2l0,0l0,0h96.9l0,0l0,0
					C409.1,606.3,395.5,619.9,378.8,619.9C378.8,619.9,378.8,619.9,378.8,619.9z"/>
				<polygon class="st15" points="418.3,537.3 447.6,537.3 459,473.7 429.7,473.7 				"/>
				<path class="st16" d="M192.5,549v24.7c0,3.3,8.9,6.3,24.5,8.9c29.8,5,84,8.3,145.9,8.3c94.1,0,170.3-7.7,170.3-17.3V549
					c0,4.8-19.6,9.2-51.1,12.3c-30.7,3.1-72.8,5-119.2,5s-88.5-1.9-119.2-4.9c-10.2-1-19.2-2.2-26.7-3.4
					C201.4,555.3,192.5,552.3,192.5,549z"/>
				<path class="st15" d="M192.5,549c0,3.3,8.9,6.3,24.5,8.9c7.5,1.2,16.4,2.4,26.7,3.4c30.7,3.1,72.8,5,119.2,5s88.5-1.9,119.2-4.9
					c31.6-3.1,51.1-7.5,51.1-12.3c0-9.5-76.3-17.3-170.3-17.3c-74.8,0-138.3,4.9-161.2,11.7C195.7,545.2,192.5,547.1,192.5,549z"/>
				<path class="st16" d="M432.9,475.8h33.6c29.7,0,61.3-38,70.7-85l21.3-107.1c9.3-46.9-7.2-85-36.9-85H488
					c-29.7,0-61.3,38-70.7,85L396,390.8C386.7,437.8,403.2,475.8,432.9,475.8z"/>
				<path class="st15" d="M413,475.8h33.6c29.7,0,61.3-38,70.7-85l21.3-107.1c9.3-46.9-7.2-85-36.9-85h-33.6
					c-29.7,0-61.3,38-70.7,85l-21.3,107.1C366.8,437.8,383.3,475.8,413,475.8z"/>
				<circle class="st16" cx="510.2" cy="961.6" r="27"/>
				<circle class="st16" cx="216.2" cy="961.6" r="27"/>
				<path class="st17" d="M322.5,862c0,0,34.9-25.6,79.3,0"/>
			</g>
			<g id="WOMAN_1_">
				<g id="LEGS_2_">
					<g id="LEFT_2_">
						<path class="st18" d="M451.7,470.6c-48.2,68.3-241.3,26.5-241.3,26.5c-1.3-26.5,0.7-96.2-46.4-135.9l108.9,2.8
							c86,8,149.7-9.2,169.6-18C459.4,370.8,485.7,422.3,451.7,470.6z"/>
						<path class="st19" d="M135.3,365.4c0,0-133.3,8.1-144.7,36.6c-35.7,88.7,102.6,368.2,111.3,436.8
							c7.3,57.8-40.5,88.7-40.5,88.7s21.5,14.8,51.7,6.6c6.5-1.7,12.4-9.9,24.5-19.6c9-7.3,31-20.4,30.7-31.4
							c-0.6-18.2-27.1-32.2-26.4-43.6s22.8-163,15.1-228.2c-8.5-72.8-63.3-112.6-63.3-112.6l117.1-1.4
							C210.8,497.3,192.5,401.7,135.3,365.4z"/>
						<path class="st20" d="M212.6,497.2c0,0,10-92-51-137.8c-4.8-3.6-18.3,0.8-26.1,2.3c-2.8,0.6-3.6,3.8-1.9,6.2
							c40.5,58.2,41.3,108.1,38.5,137.6L212.6,497.2z"/>
						<path class="st21" d="M166.7,868.8c6.7,8.7,5.9,21-1.9,28.7l-42.2,41.7c0,0-75.5,1.4-79.9,0s-0.4-14,11.9-17.7
							s29.1-24.1,29.1-24.1S97,883,118.9,927.5l14.6-12.9c0,0-3.5-37.9,2.3-57.6h-33.9c-3.2,0-5.9-2.6-5.9-5.8c0,0,0,0,0,0
							c0.1-3.1,2.6-5.5,5.7-5.5h42c1.4,0,2.7,0.6,3.6,1.6L166.7,868.8z"/>
					</g>
					<g id="RIGHT_2_">
						<path class="st22" d="M480,499.9c-20.5,59.2-188.9,51.4-217.7,49.3c0,0,0-0.1,0-0.1c-1.3-26.5-9-110.3-56.1-150l62.5-15.1
							l7-19.7c84,7.3,146.3-9.3,166.3-18.1C455.8,364.6,502.9,433.8,480,499.9z"/>
						<path class="st23" d="M164.6,407.9c0,0-138.3,26.7-144.3,67.1s81.6,353.6,72.2,411s-71.7,97.2-71.7,97.2s51.5,9.8,79.1,0
							c6.3-2.2,17.7-17.4,28.3-23.4c10-5.7,31-15.6,30.7-26.7c-0.6-18.2-27.1-33.2-26.4-44.5c0.7-11.4,42.6-174.4,35-239.6
							c-8.5-72.8-35-103.1-35-103.1l77.4-1.4C209.9,544.6,224.4,462.5,164.6,407.9z"/>
						<path class="st20" d="M216.4,553.6l38.1,3.8c4.3,0,7.9-3.5,7.9-7.8c0-0.1,0-0.3,0-0.4c-1.3-26.7-9.2-111.5-57.1-150.8
							c-4-3.2-9.2-4.4-14.2-3.1l-32.1,8.3c0,0,65,44.4,49.7,141c-0.7,4.3,2.2,8.3,6.5,9C215.5,553.5,216,553.6,216.4,553.6z"/>
						<path class="st24" d="M156.2,916.5c6.9,8.9,6,21.4-1.9,29.3l-43.1,42.5c0,0-86.7,1.4-91.2,0s-0.4-14.3,12.1-18.1
							s29.7-24.6,29.7-24.6s23.3-14.7,45.6,30.7l14.9-13.1c0,0-3.5-38.8,2.3-58.8H90.1c-3.3,0-6-2.6-6-5.9c0,0,0,0,0,0
							c0.1-3.2,2.7-5.7,5.8-5.7h42.8c1.4,0,2.7,0.6,3.6,1.6L156.2,916.5z"/>
					</g>
				</g>
				<path id="T-SHIRT_1_" class="st4" d="M366.8-7c13.1,6.9,44,22.5,63.4,55.9s-23.1,154.6-22.6,190.8s34.9,98.9,40.8,101.7
					c6,2.8-70.1,34-182.4,22c0,0,8.9-50.6,2.4-72.6C262,268.8,232,205,232,205s-34.1-26-26.9-46.5c4.8-13.7,56-98.4,56-98.4L366.8-7
					z"/>
				<g id="HAND_2_">
					<path class="st25" d="M480.3,174c0,0-34.7,40.9-98.1,40.9c0,0-50.7-163.3,7.3-183.9C447.6,10.4,480.3,174,480.3,174z"/>
					<path class="st23" d="M484.4,281.5c-3,27.3-225.1,64.2-225.1,64.2l-0.1-0.1c-4,2.1-18.8,8.9-28.8,3.9
						c-11.6-5.9-21.9-8.5-29-6.9c-8.8,1.9-18.8,8.7-23.8,7.2c-6.1-1.8-11.8-4.7-16.7-8.6c4.9-5.6,10.1-11,15.5-16.2
						c-5,1.6-12.1,5.7-15.8,6.9c-5.9,2-8.2-3.7-8.2-3.7s14.2-10,18.1-12.3c6.8-3.8,22-7.6,26.2-7.6c7.3,0.2,46.5,5.1,65.8,8.6
						c31.8-16.6,112.7-58.3,144.1-69l-10.7-34.4c0,0,45.1-4.4,76.7-33.1C472.6,180.4,487.4,253.2,484.4,281.5z"/>
					<path class="st26" d="M167.2,342.9c0,0,21.4-18.5,26.1-18.9c8.3-0.8,19.1-1.9,19.1-1.9"/>
					<path class="st26" d="M174.1,346.9c0,0,18.9-15.1,23.6-15.6c8.3-0.8,19.1-1.9,19.1-1.9"/>
					<path class="st19" d="M477.6,207.8c-13.9,8.2-39.2,19.1-78.6,15.8l-3.1-10.1c0,0,45.1-4.4,76.7-33.1
						C472.6,180.4,474.9,192,477.6,207.8z"/>
				</g>
				<g id="HEAD_2_">
					<g id="HAIR_2_">
						<path class="st24" d="M406.7-102.7c0,0-7.3,101.7-221,129.3c0,0-27.9-22.6-11.3-45.5s34.8-31.3,19.2-46.7s-37.4-47.6-5.9-77.2
							s103.6-68.8,155.9-40.1S331.8-101.8,406.7-102.7z"/>
						<path class="st27" d="M175.4,26.6c0,0-27.9-22.6-11.3-45.5s33-31.3,17.4-46.7s-31.8-52.7,3.8-77.2
							c41.3-28.5,84.8-41.4,135.8-21.7"/>
					</g>
					<g id="NECK_2_">
						<path class="st23" d="M311.8-95.7c0,0,8.7,61.2,54.9,88.7c0,0-30.2,60.6-107.4,70.4c0,0,22-40.1,22-52.9
							c-0.1-12.8-10.1-49.7-10.1-49.7L311.8-95.7z"/>
						<path class="st19" d="M314.2-72.9c0.8,28.5-19.2,50.9-36.1,62.6c-2.9-14.1-7-28.9-7-28.9l40.6-56.5c0.6,4,1.5,7.9,2.5,11.7
							C314.1-80.6,314.1-76.9,314.2-72.9z"/>
					</g>
					<path id="HEAD-2_2_" class="st23" d="M307.1-120.9c-15.7-18-39.5-30.7-61.1-23.7c-33.2,10.7-37.6,65.7,5,115.7
						c5.1,5.9,54.2-12.6,59.1-51.9C312.7-101.4,307.1-120.9,307.1-120.9z"/>
				</g>
			</g>
			<g id="LAPTOP_1_">
				<path class="st28" d="M4,348.5h-14.5c-6.6,0-12.6-3.9-15.3-10l-93.9-215.9c-3.7-8.4,0.2-18.3,8.6-22c2.1-0.9,4.4-1.4,6.7-1.4
					l0,0L4,348.5z"/>
				<path class="st28" d="M303.5,372.4H16c-13.2,0-23.9-10.7-23.9-23.9c0,0,0,0,0,0h287.4C292.8,348.5,303.5,359.2,303.5,372.4
					L303.5,372.4z"/>
			</g>
		</g>
	</g>
</g>
</svg>
