<svg enable-background="new -840 -206 1446 1203" viewBox="-840 -206 1446 1203" xmlns="http://www.w3.org/2000/svg"><path d="m404.2 994 37.4-421c1.5-13.1 12.5-22.9 25.7-22.9 13.1 0 24.2 9.9 25.7 22.9l47.4 421" fill="none" stroke="#ffb000" stroke-linecap="round" stroke-miterlimit="10" stroke-width="5"/><path d="m145.2 994 37.4-421c1.5-13.1 12.5-22.9 25.7-22.9 13.1 0 24.2 9.9 25.7 22.9l47.4 421" fill="none" stroke="#ffb000" stroke-linecap="round" stroke-miterlimit="10" stroke-width="5"/><path d="m553.4 524c0 19.1-96.6 34.5-215.7 34.5s-215.6-15.5-215.6-34.5c0-3.3 2.8-6.4 8.1-9.4 25.6-14.5 108.9-25.1 207.6-25.1s181.9 10.6 207.5 25.1c5.3 2.9 8.1 6.1 8.1 9.4z" fill="#dbdaff"/><path d="m545.3 514.5c-22.8 16.8-107.1 29.3-207.5 29.3s-184.8-12.4-207.6-29.3c25.6-14.5 108.8-25.1 207.6-25.1s181.9 10.6 207.5 25.1z" fill="#fff"/><ellipse cx="337.8" cy="524" fill="none" rx="215.7" ry="34.5" stroke="#6562cf" stroke-miterlimit="10" stroke-width="5"/><path d="m287.7.7s-4.9 119.4-15.2 141.3-71.2 122.8-95.2 120.5c-45.4-4.5-110.5-217.3-118.4-243.9-3.9-6.4-8-10.4-14.7-13.6-32.5-15.1-38.1-27.6-44.9-38.7l-4.9-32.7c14.8-8.7 26.8 15.6 30.8 21.4 10.6 15.3 24.1 11.6 28.9 11 7.1-.9-3.5-9.4-7.6-17.1-5.9-11.1 1.8-17.5 1.8-17.5 1.5 5.8 26 32.5 33.8 41.6 7.2 8.4 6.5 25.9 6.4 28.8 9.8 14.9 85.4 144.5 85.4 144.5s42.7-102.3 60-121.3c12.6-13.8 41.8-20.4 53.8-24.3z" fill="#ffd1cb"/><path d="m15.1-33.4s-2.1-11.6-8.8-17.8c0 0-2.2-12.9-10.9-15" fill="none" stroke="#eeb9af" stroke-linecap="round" stroke-miterlimit="10" stroke-width="3"/><path d="m21.8-36.1s-2.6-11.4-9.6-17.4c0 0-7.2-17.6-16.6-12.8" fill="none" stroke="#eeb9af" stroke-linecap="round" stroke-miterlimit="10" stroke-width="3"/><path d="m198.3 997h-11.9l.6-33-14.7 33h-90.5s-1.6-18.7 13.3-21.3c12.6-2.2 24.6-15.5 24.6-15.5l61.8-59.8c5.6 6.7 21.3 23 22 48.5.4 16.2-1.4 32.4-5.2 48.1z" fill="#ffb000"/><path d="m63.1 439.6c-19.5 2.7-49.7 37.5-25.9 106.3s112.1 333.8 111.2 353.8c-1.2 26.6-28.6 60.6-28.6 60.6s29.2 15.3 46.7-9.3 15.1-50.4 15.1-50.4 7.1-215.8-19-351.5c-11.9-62.3-64.5-114.3-99.5-109.5z" fill="#ffd1cb"/><path d="m170.9 605.5c-7.7.2-15.6.2-23.6 0-42.4-1.5-74.9-11.4-96.8-20.8-2-5.9-3.8-11.4-5.6-16.5 21.7 8.2 56.2 17.6 102.3 19.3 6.3.2 12.5.3 18.7.3 1.6 5.6 3.3 11.5 5 17.7z" fill="#f3c2b9"/><path d="m288.8 997h-11.9l.6-32.9-19.7 32.9h-87.5s-1.6-18.7 13.3-21.3c12.6-2.2 26.6-15.5 26.6-15.5l61.8-59.8c5.5 6.7 21.3 23 22 48.5.3 16.2-1.4 32.4-5.2 48.1z" fill="#ffc440"/><path d="m161.6 441c-15.7 11.7-31.7 38.1-7.9 106.9s86.8 331.9 85.2 351.8-28.6 60.6-28.6 60.6 29.2 15.3 46.7-9.3 15.1-50.4 15.1-50.4 43.7-198 18.9-329.6c-13.5-72.2-85.7-162.6-129.4-130z" fill="#ffd1cb"/><path d="m293.1 583.1c-18.2 6.3-65.4 20.6-121.9 22.4h-.4c-1.7-6.2-3.4-12.1-5-17.7 42.3-.1 84.4-4.7 125.7-13.6.6 2.9 1.1 5.9 1.6 8.9z" fill="#f3c2b9"/><path d="m18.1 555.8s-15.8-90.3 46.2-130.3 243.1-72.8 235.2-113.5l158.6-3.6s35.9 52.3 41.7 107.8c6.7 64.2-7.8 112.7-139 112.5-70.4-.2-60.7 43.5-60.7 43.5s-69.3 18.3-152.9 15.3-129.1-31.7-129.1-31.7z" fill="#424d76"/><path d="m318.4-11.1c-9.4 2.1-30.7 11.8-30.7 11.8s-29 110-36 124.8-11.6 38.6 18 59.8l30 128.7h158.4s12.2-134.4 20.6-181.4-2-136.9-2-136.9l-58.7-6.8z" fill="#ffb000"/><path d="m591.5 281.3c-7 41.9-247.6 33.5-263.2 32.9-3.7 3.8-16.8 16.3-28 13.9-13.2-2.9-24.3-10.8-32.5-6.9s-17.4 11.8-22.9 11.4c-6.5-.4-12.9-1.8-18.9-4.2 3.8-5.5 8-10.8 12.4-15.9-4.8 2.1-11.3 6.7-14.8 8.4-3.1 1.6-6.9.9-9.2-1.7 0 0 12-10.8 16.4-13.4 4.1-2.5 17-8.6 23.3-9.1 7.6-1.1 52.4-10 73.1-7.9v.2c9.1-2.4 174.9-46.8 186.6-49.3 0 0-41.2-135.1-46.7-157.4s-7.5-88.2 9.5-86.6c11 1.1 36 3.4 50.6 36.9 10.4 23.9 73.1 197 64.3 248.7z" fill="#ffd1cb"/><path d="m233 328.8s18-18.8 22.7-20c8.3-2.1 19.2-4.8 19.2-4.8" fill="none" stroke="#eeb9af" stroke-linecap="round" stroke-miterlimit="10" stroke-width="3"/><path d="m241.6 330s15.5-14.7 20.3-15.8c8.3-2.1 19.2-4.8 19.2-4.8" fill="none" stroke="#eeb9af" stroke-linecap="round" stroke-miterlimit="10" stroke-width="3"/><path d="m338.5-76.3c0 4.7 9.9 35.6-20.1 65.2 0 0 41.6 15.4 99.6 0 0 0-16.7-64.6-16.3-83.9z" fill="#ffd1cb"/><path d="m395.6-80.6c-3 31-35.6 55.6-66.6 56.7 16.8-25.2 9.5-48.4 9.5-52.4l56.1-16.8c.6 4.9 1.3 9.7 1 12.5z" fill="#f3c2b9"/><path d="m302.7-135.8c-3.6-4.2-5.8-31.3 9-44.2 28.2-24.4 80.3-34.8 111.5-17.3 30.1 16.8 42.1 39.1 37.3 82.2-4.6 41.2-14.6 49.6 11 80.1 23 27.4 30.1 66.1 16.2 98.5-34 79.1 32 77.5 32 117.4h-102.4s-71.5-61.9-36.5-138.8c31.3-68.8 36.7-92.4 14.3-130-11.8-19.7-92.4-47.9-92.4-47.9z" fill="#da3d58"/><path d="m415-199.8c26.3 8.6 59.8 39.1 55 82.2-4.6 41.2-14.6 49.6 11 80.1 23 27.4 30.1 66.1 16.2 98.5-34 79.2 32 77.5 32 117.4" fill="none" stroke="#c43b58" stroke-miterlimit="10" stroke-width="3"/><path d="m394.8-108s16-2.1 17 3.8c2.1 11.8-15.5 16.4-15.5 16.4s-3.2 8.6-7.1 17.3c-2.3 5.1-37.7 21.9-53.7 20.2s-31.3-43.3-31.5-80.4c-.2-26.9 8.6-41 27.1-41 25.8 0 37.9 19.1 55.5 13.7 0-.1-11.5 26.8 8.2 50z" fill="#ffd1cb"/><g stroke-miterlimit="10"><circle cx="307.8" cy="-114.9" fill="none" r="18.8" stroke="#ffb000" stroke-width="4"/><circle cx="354.7" cy="-114.9" fill="none" r="18.8" stroke="#ffb000" stroke-width="4"/><path d="m326.6-114.9h9.3" fill="none" stroke="#ffb000" stroke-width="4"/><path d="m373.5-114.9h39.4" fill="none" stroke="#ffb000" stroke-width="4"/><ellipse cx="-615.4" cy="606.6" fill="#fff" rx="156.3" ry="29.8" stroke="#6562cf" stroke-width="5"/><path d="m-624.7 636.3v209.1c0 23.3-13.2 44.6-34.1 54.9l-55.6 27.4c-11.6 5.7-19 17.6-19 30.6" fill="none" stroke="#6562cf" stroke-width="5"/><circle cx="-732.9" cy="977.7" fill="none" r="19.3" stroke="#ffb000" stroke-width="5"/><circle cx="-659.8" cy="977.7" fill="none" r="19.3" stroke="#ffb000" stroke-width="5"/><path d="m-624.7 820.9v65.5c0 10.5-3.9 20.6-10.9 28.4l-13.3 14.8c-7 7.8-10.9 17.9-10.9 28.4" fill="none" stroke="#6562cf" stroke-width="5"/><path d="m-604.9 636.3v209.1c0 23.3 13.2 44.6 34.1 54.9l55.6 27.4c11.6 5.7 19 17.6 19 30.6" fill="none" stroke="#6562cf" stroke-width="5"/><circle cx="-496.7" cy="977.7" fill="none" r="19.3" stroke="#ffb000" stroke-width="5"/><circle cx="-569.8" cy="977.7" fill="none" r="19.3" stroke="#ffb000" stroke-width="5"/><path d="m-604.9 820.9v65.5c0 10.5 3.9 20.6 10.9 28.4l13.3 14.8c7 7.8 10.9 17.9 10.9 28.4" fill="none" stroke="#6562cf" stroke-width="5"/></g><path d="m-471.7 864.4s1.1 36.4-20.8 51.6c-20.7 14.4-21.4 25.9-21.4 25.9s34.5 33.5 42.9 36.9 39.4 14.1 55.4 14.1c0 0 10.8-7.9-14-29.5-33.6-29.4 4.5-82.3 4.5-82.3s-35-10.5-46.6-16.7z" fill="#ffc0b7"/><path d="m-533.3 434.4s175 20.6 244.8 93.5c37.7 39.4-110.7 276.6-117.7 356.2 0 0-53.9-7.1-88.8-34 0 0 6.5-220.5 85.8-261.4 0 0-151 12-215.7-20.9s0-123 0-123 56.3 10.9 91.6-10.4z" fill="#3c4564"/><path d="m-487 907.7s-29 11.4-29.7 32.4c0 0 30.3 31.1 45.7 38.8 24.1 12.1 57.2 16 57.2 16s12-14.8-6.9-29.1-22.5-39.7-22.5-39.7-2.1 18-18.9 21.2c-15 3-19.9-4.6-19.9-4.6s4.7-32.5-5-35z" fill="#5654b7"/><path d="m-728.4 447.8s-31.8 89.9-20.3 115c21.3 46.9 190.9 60.9 316.6 37.9 0 0-43.9 154.6 8 281.3 0 0 34.9 6 83.8-.9 0 0-1-152.6 20.9-315.2 4.4-32.7-183.6-109.4-266.4-118.1s-142.6 0-142.6 0z" fill="#3f4d79"/><path d="m-411.7 883.6s9.5 35.4 9.5 45.9c0 21.4-16.5 47.4-13.5 65.3h149.1s-9-22-45.3-30c-40.9-9-48.4-35.2-47.4-81.2 0 0-27 2-52.4 0z" fill="#ffcfc9"/><path d="m-404.8 946.4s-17.4 24.5-10.9 48.4h151.4s-.3-21.4-21.4-24-55.4-19.9-55.4-19.9 2.5 25.4-36.4 28.4c0 0 1.5-31.9-27.3-32.9z" fill="#6562cf"/><path d="m-511.1 76.2c-21.3 10.6-34.2 14-27.5 81.5s55.8 146.3 55.8 146.3l63.8-62.9s-43-125.1-52-138.9c-17.5-26.9-31.8-30.1-40.1-26z" fill="#da3d58"/><path d="m-401.6 261.4s-13.1-29.5-19.5-29.8-52.1 33.6-58.5 63.5c-2.1 9.7-11.6 25.8 43.5 32.9 17.1 2.2 34.5-66.6 34.5-66.6z" fill="#ea5777"/><path d="m-197.6 313.4s-4.1 2.7-16.1-.2c-3.9-.9-9.3-7.7-15.1-11.4-4.7-3-13.8-2.5-23.7-1.3-5.6.6-10.9-6.7-14.4-10.9-35.1 10.2-132.8 38.6-171.6 35.4-9.9-.8 18.4-62.9 35.4-67 12.9-3.1 89-.3 137.2 5.8 17.2 2.5 34.1 6.3 50.6 11.4 6.3 4 17.7 38.2 17.7 38.2z" fill="#ffc0b7"/><path d="m-533.3 434.4s-16.9 14-52.5 13.3v-.1c-4-67.9-12.3-195.4-21.1-242.7-17.4-94.8-65-176.5-65.7-177.8l91.1 4.8s47.2 33.4 57.5 173-9.3 229.5-9.3 229.5z" fill="#fff"/><path d="m-581.4 32.1c8.6 3.4 65.1 32 83.1 42.6s28.8 93.9 19.4 161c-16 113.1-14.6 157.3 1.2 208.5 0 0-36-7.5-55.5-9.1 0 0-9.9-77.5 3.7-156.1 27.4-159.6-51.9-246.9-51.9-246.9z" fill="#da3d58"/><path d="m-672.6 27.3s-90.1 29.8-119.7 62.8c-12 13.3 56.5 177.6 50.5 225.5s-33.9 153.6-33.9 153.6 42.7 55.9 192.3 22.6c0 0-11.4-220.8-23.5-286.6-17.5-95.7-65.7-177.9-65.7-177.9z" fill="#da3d58"/><path d="m-482.1 179.8c-4.1 29.2-8 97.8-5.7 120.2" fill="#ea5777"/><path d="m-772.5 73.5c-19.8 16.5-37.1 15.2-29.8 88.3 7.3 73.2 60.5 158.6 60.5 158.6l69.2-68.2s-35.7-132.5-42.6-149c-10-24.2-37.4-46.2-57.3-29.7z" fill="#da3d58"/><path d="m-671.6 252.3s-22-106.4-36.8-128.8" fill="#ea5777"/><path d="m-645.7 266.3s-22.1-24.1-29.2-24.4c-7-.3-54.5 33.7-64.6 68.5-3 10.3-19.6 27.8 45.9 44.6 36.5 9.3 47.9-88.7 47.9-88.7z" fill="#ea5777"/><path d="m-363.7 310.8s-3.4 4.7-8.4 1.5c-3.1-2-8.7-7.4-12.9-10 3.8 6 7.3 12.1 10.4 18.5-5.5 2.4-11.4 3.8-17.3 4-4.9.2-12.5-8.3-20.2-12.1-6.2-3.1-17.4-1.3-29.4 1.5s-25-15.1-25-15.1v-.1c-22.9 7.7-169.8 48.9-224.4 46-12.3-.6 20.4-73.6 41.5-79.3 17.8-4.8 134.1-3.6 190.3 4.4 21.7 2.4 54.7 11.3 60.9 12.7 5.6.8 18.6 10 22.2 13 3.7 3 12.3 15 12.3 15z" fill="#ffcfc9"/><path d="m-380.8 320.9s-15.3-21.9-19.5-23.4c-7.4-2.7-17.1-6.2-17.1-6.2" fill="none" stroke="#f7b3af" stroke-linecap="round" stroke-miterlimit="10" stroke-width="4"/><path d="m-388.1 322.9s-13.8-18.3-18-19.8c-7.4-2.7-17.1-6.2-17.1-6.2" fill="none" stroke="#f7b3af" stroke-linecap="round" stroke-miterlimit="10" stroke-width="4"/><path d="m-579.9 20.2-20.9 58.7s-56.7 6.2-71.6-51.8l20-57.2z" fill="#ffcfc9"/><path d="m-579.9 20.2-9.4 26.5c-12.6 5.7-28.6 5.5-44.3-15.3-14.2-18.9-17.3-46.7-20-57l1.2-4.4z" fill="#ffc0b7"/><path d="m-652.3-30.1s17.4 40 38.7 46.4c20.3 6.1 45.1 4.5 47.7 0s23.6-57.8 18.1-93c-3.9-24.4-14.2-27.7-33.5-25.8s-26.1 4-49.8-3.2c-6.6-2 4.8 35.2-15.2 49.4 0 0-15-5-18.2.1-3.4 5.2 12.2 26.1 12.2 26.1z" fill="#ffcfc9"/><path d="m-655-22.7s-51.1-31.2-48.6-73.5c1.1-18.1 39.4-66.7 62.9-68.7s59.7 10.1 71.1 20.1c11.4 10.1 27 20.9 22.9 59.4-.2 2.1-.7 4.2-1.5 6.1-4.2-22-14.4-25.1-33.1-23.2-19.4 1.9-26.2 4-49.8-3.2-6.6-2 4.8 35.2-15.2 49.4 0 0-15-5-18.2.1s12.3 26.1 12.3 26.1z" fill="#3f4d79"/><path d="m-659-157s4.8-37.4-20-36.1-39.9 24.8-42.2 40.2c-3 19.7 32.8 25.5 32.8 25.5z" fill="#3f4d79"/><path d="m-712.8-127.7c8.4 9.9 24.3.3 24.3.3" fill="none" stroke="#3f4d79" stroke-miterlimit="10" stroke-width="4"/><path d="m-652.1-158.4s5.5-41.6-23-40.2-47 35.4-43.2 46c3.8 10.5 32.3 25.3 32.3 25.3z" fill="none" stroke="#3f4d79" stroke-miterlimit="10" stroke-width="4"/><path d="m-562.2-102.7c-5-2-11.6 2.8-19.3 4.6-24.9 6-42 2.8-51.3-9.1" fill="none" stroke="#3f4d79" stroke-miterlimit="10" stroke-width="4"/><circle cx="-603.6" cy="-50.6" fill="none" r="19.4" stroke="#ffb000" stroke-miterlimit="10" stroke-width="5"/><ellipse cx="-553.5" cy="-50.6" fill="none" rx="18.2" ry="19.4" stroke="#ffb000" stroke-miterlimit="10" stroke-width="5"/><path d="m-584.4-51.9h11.9" fill="none" stroke="#ffb000" stroke-miterlimit="10" stroke-width="5"/><path d="m-166.6 997 83.1-633.5h14.9l83.1 633.5" fill="none" stroke="#ffb000" stroke-linecap="round" stroke-miterlimit="10" stroke-width="5"/><path d="m-20 335.1h-41.5l-6.5-9.1c-6.3-9-18-14.5-30.7-14.5h-61c-12.7 0-24.4 5.5-30.7 14.5l-6.5 9.1h-39.9l16-20.1c7.1-9 20.3-14.5 34.6-14.5h115.6c14.3 0 27.5 5.5 34.6 14.5z" fill="#d1d0ff" stroke="#6562cf" stroke-linejoin="round" stroke-width="6"/><path d="m-19.2 335.1h-16.8l-6.5-9.1c-6.3-9-18-14.5-30.7-14.5h-85.6c-12.7 0-24.4 5.5-30.7 14.5l-6.5 9.1h-40l16-20.1c7.1-9 20.3-14.5 34.6-14.5h115.6c14.3 0 27.5 5.5 34.6 14.5z" fill="#fff" stroke="#6562cf" stroke-miterlimit="10" stroke-width="6"/><path d="m4.1 244h-391c-10.4 0-17.9-10.3-15-20.7l58.3-209.2c3-11.3 13.1-19.1 24.7-19.3h391c10.4 0 17.9 10.3 15 20.7l-58.3 209.2c-3 11.3-13.1 19.2-24.7 19.3z" fill="#fff" stroke="#6562cf" stroke-miterlimit="10" stroke-width="6"/><path d="m-223.5 180.4-9.9 60.5h34.1l-15.1-60.6c-.3-1.4-8.9-1.3-9.1.1z" fill="#e2e2ff"/><path d="m-84.7 299.9h-96.9l-23.9-96.2c-2.6-10.6-6.1-14.7-14.2-17v-5.5h82.2c13.7 0 25.6 9.3 28.9 22.5z" fill="#d1d0ff" stroke="#6562cf" stroke-linejoin="round" stroke-width="6"/><path d="m-75.1 299.9h-96.9l-23.9-96.2c-3.3-13.2-7.8-22.5-21.5-22.5h89.5c13.6 0 25.5 9.3 28.8 22.5z" fill="#fff" stroke="#6562cf" stroke-miterlimit="10" stroke-width="6"/><path d="m-325.8 318.6-128.8 7.4v9.1h128.8z" fill="#fff" stroke="#6562cf" stroke-linejoin="round" stroke-width="6"/><path d="m-325.8 318.6h80.5v16.2h-80.5z" fill="#d1d0ff" stroke="#6562cf" stroke-linejoin="round" stroke-width="6"/><path d="m-593.4 362.2h591.4v-27.1h-592.7z" fill="#fff" stroke="#6562cf" stroke-linejoin="round" stroke-width="6"/></svg>