<svg enable-background="new -826 -206 1418.4 1203" viewBox="-826 -206 1418.4 1203" xmlns="http://www.w3.org/2000/svg"><g stroke-width="5"><path d="m421.2 559.5c0 10.5-8.5 18.9-18.9 18.9h-294.5c-10.5 0-18.9-8.5-18.9-18.9 0-10.5 8.5-18.9 18.9-18.9h294.4c10.5-.1 19 8.4 19 18.9z" fill="#fff" stroke="#ffb000" stroke-miterlimit="10"/><path d="m315.8 608.9h-110.8c-7.4 0-13.4-6-13.4-13.4v-17.1h137.6v17.1c0 7.4-6 13.4-13.4 13.4z" fill="#fff" stroke="#ffb000" stroke-miterlimit="10"/><path d="m245.9 608.9h29v232.1h-29z" fill="#fff" stroke="#ffb000" stroke-miterlimit="10"/><path d="m276.9 901h-32.9c-6.4 0-11.6-5.2-11.6-11.6v-36.7c0-6.4 5.2-11.6 11.6-11.6h32.9c6.4 0 11.6 5.2 11.6 11.6v36.7c-.1 6.4-5.2 11.6-11.6 11.6z" fill="#fff" stroke="#ffb000" stroke-miterlimit="10"/><path d="m388.7 954.9c0-29.8-24.1-53.9-53.9-53.9h-148.8c-29.8 0-53.9 24.1-53.9 53.9" fill="none" stroke="#6562cf" stroke-miterlimit="10"/><circle cx="389.7" cy="961.3" fill="#fff" r="21.6" stroke="#ffb000" stroke-miterlimit="10"/><circle cx="130.7" cy="961.3" fill="#fff" r="21.6" stroke="#ffb000" stroke-miterlimit="10"/><circle cx="261.2" cy="961.3" fill="#fff" r="21.6" stroke="#ffb000" stroke-miterlimit="10"/></g><path d="m-20.5 870.3c-9.6 22.9-18.4 41.6-25.1 53.9-5 9.1-13.7 62.5-59.3 41-1.6-.8 18-5.8 24.2-50 2.2-15.5 4.2-30.4 6-44.8 17.8 1.3 40.5.5 54.2-.1z" fill="#ffcfc9"/><path d="m-30.3 986.7s18.4-63.6-6.2-73.3c-7.8-3.1-17.4 4.7-19.9 31.5-2.2 23.4-36.4 27-39.6 11.9 0 0-41.9 8.5-41.9 29.9z" fill="#3f4d79"/><path d="m-8.1 869.5s-50.7 3.6-77.4-.2c0 0-35.4-369.5-30.1-407.6 6.4-45.7 158.6-86.3 237.4-99.1l14.5-65.7s106.5-1.9 166.6-1.9c0 0 64.4 114.6 57.8 190.4s-145.5 58.6-331 58.6c0 .1 56.6 114.2-37.8 325.5z" fill="#3f4e79"/><path d="m146.5 872.1c-14.1 1.3-28.3 1.1-42.4-.3 4.7 18.4 9.1 36 12.6 51.7 2.2 10.1-12.2 23.7-16.3 33.6l.3-.2c18.9-3 44.4 14.9 41.7-13.1-2.6-28 1.5-35 4.1-71.7z" fill="#ffcfc9"/><path d="m141.9 923.2c6.5 0 17.1 11.8 16.1 30.7-.6 11.3-2.9 22.4-6.9 32.9h-73.3c1.3-20.3 22.9-29.9 22.9-29.9 18.9-3 43.4 14.9 40.8-13.1z" fill="#3f4d79"/><path d="m199.2 398.2s-161.4 29.2-179.8 77.5 67.2 393.8 67.2 393.8c49.6 7.6 75 0 75 0 51.6-236.6-8.9-315-8.9-315 120.2-5.1 196.1 6.3 207.9-68.9 3.9-23.9-23-115.3-161.4-87.4z" fill="#3f4e79"/><path d="m196.4 398.2s-161.4 29.2-179.8 77.5 67.2 393.8 67.2 393.8" fill="none" stroke="#fff" stroke-miterlimit="10" stroke-width="5"/><path d="m160.9 243.4c9.6-21.7-33-50.2-76.6-38.8 0 0 14.7-174.9 49.2-197 33.4-21.4 41.5 79.3 42.6 103.9-.1 0 6.1 95.2-15.2 131.9z" fill="#eaeeff"/><path d="m157.1 248.7c21.1-18.9-22.5-57.5-72.8-44.1-31.5 4.9-153.8 31-165.3 36.9-11.2 5-43.7 21.3-47.8 26.3-5.2 6.3-6 22.8-5.7 25s4.6 13.5 4.6 13.5 8.2-.8 7.2-9.8c-1.3-10.6 8.2-13.9 14.5-16.7 2.6-1.2 9.5-.7 10.7 3.3s-8.8 8.8-10.4 11.7c-2.5 4.4.4 9.3.4 9.4.1.1 15.2-8.2 18.1-9.7 2.7-1.4 15.3-16.2 20.7-29.2 0 0 188.8 16.7 225.8-16.6z" fill="#ffc0b7"/><path d="m133.7-86.5c-3.6-8.6-18.3-53.3 5.6-72.6s55.3-39.1 93.4-36 48.7 53.8 70.2 61.9c21.6 8.1 47.9-1.5 72.7 20.8s-.9 57.6 24.4 76.4 49.8-5 75.1 28.2c29.1 38.1-13.4 82 27.9 85.8 45.7 4.2 73.2 81.5 53.6 132.8h-237.8c-151.9-23.4-185.1-297.3-185.1-297.3z" fill="#ffb000"/><path d="m150.1-161.8c23.2-20.5 50.1-34.2 88.3-32.3s52.8 44.3 74.6 52c21.8 7.6 49.3-3.1 74.9 18.9 25.6 22.1.9 61.3 26.9 79.7s49.6-6.7 76 26.4c30.4 38-10.6 81.5 30.8 84 45.8 2.8 75.7 60.7 52.7 126.3" fill="none" stroke="#ffb000" stroke-miterlimit="10" stroke-width="5"/><path d="m135.6 296.3s-13.5-109.9-20.6-115.7c-16-12.9-28.8-31.5-22.1-57.1 3.8-14.5 34.2-110.3 40.7-116.4 6.5-6.1 49.1-21.3 49.1-21.3h120.3c13.7 4.6 56.7 20 67 35.8 50.2 76.9 66.3 200.2 66.3 200.2h-62.4s-30-67.4-40.7-68.2-30.7 141.8-30.7 141.8-68.6 19-166.9.9z" fill="#ceeff8"/><path d="m134.6 296.3s-13.5-109.9-20.6-115.7c-16-12.9-29.7-32.4-23-58.1" fill="none" stroke="#fff" stroke-miterlimit="10" stroke-width="5"/><path d="m219.9-.9s-55.4 105.7-41.7 306.7" fill="none" stroke="#fff" stroke-miterlimit="10" stroke-width="5"/><circle cx="213.3" cy="81.3" fill="none" r="7.3" stroke="#fff" stroke-miterlimit="10" stroke-width="5"/><circle cx="203.3" cy="134.9" fill="none" r="7.3" stroke="#fff" stroke-miterlimit="10" stroke-width="5"/><circle cx="197.9" cy="188.6" fill="none" r="7.3" stroke="#fff" stroke-miterlimit="10" stroke-width="5"/><path d="m429.2 251.7c-30.9 32.5-230.7-11-230.7-11s-10.4 16.5-22.6 17-23.7-3.7-29.9 1.5-12.4 14.3-17.3 15.3c-5.8 1.2-11.7 1.4-17.5.7 2.1-5.7 4.5-11.3 7.1-16.8-3.7 3-8.3 8.5-10.9 10.7-2.3 2.1-5.8 2.4-8.4.7 0 0 8-12.2 11.2-15.5s12.8-11.5 18.2-13.3c6.3-2.7 43.4-20.9 62-23.9 19.6-3.2 178.7-13.9 178.7-13.9 57.4.1 86.1 21.2 60.1 48.5z" fill="#ffcfc9"/><path d="m117.1 273.4s11.5-20 15.3-22.1c6.8-3.7 15.6-8.6 15.6-8.6" fill="none" stroke="#ffb0af" stroke-linecap="round" stroke-miterlimit="10" stroke-width="3"/><path d="m125.1 273.1s10.1-16.4 14-18.5c6.8-3.7 15.6-8.6 15.6-8.6" fill="none" stroke="#ffb0af" stroke-linecap="round" stroke-miterlimit="10" stroke-width="3"/><path d="m231.4-88s16.7 52.5 71.5 73.8c0 0-76.9 33.5-120.3 0v-72.3z" fill="#ffcfc9"/><path d="m193.7-7.4c-3.9-1.9-7.6-4.2-11.1-6.8v-72.3l48.7-1.5s.5 1.5 1.5 4c5 22.2-8.4 68.2-39.1 76.6z" fill="#ffc0b7"/><path d="m230.1-79.9c-.5 17.3-33 57.9-50.7 57.9-14.7 0-42.2-44.4-45.7-64.4-3.6-20.6 0-57.1 29.4-57.6 18.1-.3 27.5 16.7 32.9 36.5 6.6 23.9 27 18.5 27 18.5s5.8-13.3 13.9-6.6c8.1 6.5-6.8 15.7-6.8 15.7z" fill="#ffcfc9"/><path d="m-241.7 986.7 47.3-652.4 47.4 653.8" fill="none" stroke="#ffb000" stroke-miterlimit="10" stroke-width="5"/><path d="m-245.9 334.3h623.6c8.1 0 14.7-6.6 14.7-14.7 0-8.1-6.6-14.7-14.7-14.7h-623.6z" fill="#fff"/><path d="m-245.9 334.3h623.6c8.1 0 14.7-6.6 14.7-14.7 0-8.1-6.6-14.7-14.7-14.7h-623.6" fill="none" stroke="#ffb000" stroke-miterlimit="10" stroke-width="5"/><path d="m1.1 83.1h-251.6c-9.5 0-17.2 7.7-17.2 17.2 0 2 .4 4 1.1 5.9l63.5 172.4h294.5l-65.6-178.3c-3.8-10.3-13.7-17.2-24.7-17.2z" fill="none" stroke="#000" stroke-miterlimit="10"/><path d="m3.4 83.1h-252.6c-11.7 0-19.8 12.4-15.8 24.1l54.9 159.5c2.2 7 8.7 11.8 16.1 12h282.6l-61.1-177.7c-3.7-10.8-13.4-17.9-24.1-17.9z" fill="#fff"/><path d="m-7 95h-252.6c-9.3 0-16.8 7.5-16.8 16.8 0 2 .4 3.9 1 5.8l54.9 149.8c2.5 6.8 8.9 11.3 16.1 11.3h282.6l-61.2-166.9c-3.7-10.1-13.3-16.8-24-16.8z" fill="#e2e2ff"/><path d="m-203.8 278.6h482c14 0 25.3 11.3 25.3 25.3h-482c-14 .1-25.3-11.3-25.3-25.3z" fill="#fff" stroke="#6562cf" stroke-miterlimit="10" stroke-width="6"/><path d="m1.1 83.1h-251.6c-9.5 0-17.2 7.7-17.2 17.2 0 2 .4 4 1.1 5.9l63.5 172.4h294.5l-65.6-178.3c-3.8-10.3-13.7-17.2-24.7-17.2z" fill="none" stroke="#6562cf" stroke-miterlimit="10" stroke-width="5"/><ellipse cx="-106.3" cy="194.9" fill="#ffb000" rx="19.9" ry="16.1" transform="matrix(-.7431 -.6691 .6691 -.7431 -315.7314 268.6525)"/><ellipse cx="-100.5" cy="188.9" fill="none" rx="19.9" ry="16.1" stroke="#6562cf" stroke-miterlimit="10" stroke-width="5" transform="matrix(-.7431 -.6691 .6691 -.7431 -301.6049 262.0148)"/><path d="m-652 603.9v151.5l-139 232.3" fill="none" stroke="#6562cf" stroke-miterlimit="10" stroke-width="6"/><path d="m-599.6 603.9v151.5l138.9 232.3" fill="none" stroke="#6562cf" stroke-miterlimit="10" stroke-width="6"/><path d="m-750.7 552.3h249.8c14.2 0 25.8 11.5 25.8 25.8 0 14.2-11.5 25.8-25.8 25.8h-249.8c-14.2 0-25.8-11.5-25.8-25.8 0-14.3 11.5-25.8 25.8-25.8z" fill="#fff" stroke="#ffb000" stroke-miterlimit="10" stroke-width="5"/><path d="m-625.8 606.3v381.8" fill="none" stroke="#6562cf" stroke-miterlimit="10" stroke-width="6"/><path d="m-475.6 185.2s-5.2 51.4-1.4 51.7c48.1 3.5 103.5 9.4 112 12.5 11.7 3.5 45.6 13.5 50.3 17.8 5.9 5.5 8.8 23.5 8.8 25.7s-2.8 13.9-2.8 13.9-8.2.2-8.3-8.7c-.2-10.5-9.8-12.6-16.4-14.5-2.7-.8-9.4.5-10.1 4.6s9.7 7.5 11.7 10.2c3 4 .8 9.2.8 9.3l-19.1-7.2c-2.8-1.1-17.1-13.9-24.1-26 0 0-135.6 42-169.3 20.9-12.7-8-10.3-33.6-5.1-72.8z" fill="#b65a18"/><path d="m-679 579.9c130.6.2 146.4 1.3 220.4-2 0 0-4-36.9 7.8-66.4 34.6-86.7 79-71.2 79-71.2-32.5-18.6-76.2-35.4-176.6-41.5-9.9-25.9-10.8-47.3-12.7-66.4l-166.2-.2s-22.3 40.4-44.4 122.1c-21.5 79.3 40.3 125.6 92.7 125.6z" fill="#3f4d79"/><path d="m-329.1 611.1c5.8-31.2-1-83.7-48.1-75.9s-38.8 37.9-38.7 57.8c.1 57.3-19.3 86.3-25.7 135.6-8.8 68.2 5.3 150.4 18 204.7l-10.4 23s18.1 16.9 59.8 19.7 12-15.4 12-15.4c-20.4-20.1-31.6-34.5-26.3-72.7 3.7-27.3 50.5-228.7 59.4-276.8z" fill="#ffcfc9"/><path d="m-429.7 946.2s-21.4 41.8 5.6 41.8c11.5 0 101.3-.3 101.3-.3s3.5-21.4-26.1-25.4c-4.1-.6-13.5-1.9-13.5-1.9s10.9 13.1-13.4 10.9c-40.6-3.5-41-29.3-53.9-25.1z" fill="#3f4d79"/><path d="m-398.7 443.3c43-20.7 48.4 33.5 41.8 58.8-2.7 10.5-31.4 93.5-40.2 121.5-8.8 28.1-75.1 192.5-81.9 290.1-.1 1.1-10 26.3-33.9-46.3-8.9-27 14.8-23.9 13.5-35.8-6.5-57.1-15.8-178.3-2.6-243.9 5.2-26.4 39.5-113.6 103.3-144.4z" fill="#ffcfc9"/><path d="m-500.2 835.2s-44.8 4.2-31.7 27.8c5.6 10.1 53.6 93.2 53.6 93.2s18.5-7.5 7.5-35.2c-1.5-3.9-7.3-17.7-7.3-17.7s-6.6 15.5-15.7-7.1c-13.8-34.3 2.6-42.6-6.4-61z" fill="#3f4d79"/><path d="m-544 323.2s11.1-60.4 31.1-118.9c0 0 7.1-3.6 55.4-28.1 0 0 1.2-68.9-34.6-101.6-23.6-21.6-72-37.5-72-37.5l-93-5c-17.9 1.1-62.9 6.5-103.1 38.2-39.7 31.4-57.6 66.9-57.6 66.9s52.5 12.3 90.8 57.7l-26.8 128.3s30.9 17.3 102.9 19.1c87.9 2.3 106.9-19.1 106.9-19.1z" fill="#da3d58"/><path d="m-499.7 249.9c-.3 10.9-27.2 2.6-27.4 6.8-.3 1.4.1 2.9.9 4.1 1.2 1.7 2.1 4 .3 7.4-2.3 4.5 5.4 5.6 3 12.9-2.3 7.2 1.3 6.3 1.7 13.7.5 8.4-34.8 15.7-45.4 11.6-1-.4-2-1.1-2.7-1.9-14.7.5-226.7 7.6-243.5-16.5-19.2-27.7 20-141.9 20-141.9 37.4 13.9 68.6 48.8 68.6 48.8l-9.6 40.4c58.6 3 124.1 22.5 157.8 33.8.2-6.4 1.8-10.4 2.8-14.6.8-3.5 4.9-10.1 18.9-10.5s54.7.3 54.6 5.9z" fill="#ffcfc9"/><path d="m-792.7 146.1s36.2 10.1 68.6 48.8l-3.6 15.2s-31.3-28.4-72.9-37.1z" fill="#ffcfc9"/><path d="m-467.8-76.3c-6.2 14.4-1.4 19.2-.5 23.5.9 4.2.2 28.6-34.2 28.1-3.1 3.8-4.1 8.9-2.7 13.6 1.8 6.2 8.3 9.8 14.5 8 4.7-1.4 7.5-6.3 6.2-11.1-1-3.6-4.8-5.7-8.4-4.7-2.7.8-4.2 3.6-3.5 6.3.6 2 2.6 3.1 4.5 2.5 1-.3 2 .3 2.3 1.3s-.3 2-1.3 2.3c-3.9 1.1-8.1-1.2-9.2-5.1-1.3-4.7 1.4-9.6 6.1-10.9 5.6-1.6 11.5 1.7 13.1 7.3 1.9 6.7-2 13.7-8.7 15.7-1.4.4-2.8.6-4.3.6-6.9 0-13-4.6-14.8-11.3-1.4-5-.7-10.3 1.9-14.8-38.7-2.3-150.3 57-150.3 57s-24 7-31.2-8.4c0 0-38 2-45.6-21.6-3-9.3-2.3-16.2-.2-21.2-2.1 1.2-4.4 1.9-6.8 2.1-.3 0-.6 0-.9 0-8.2 0-14.9-6.4-15.4-14.5-.4-7 5-13 12-13.4 5.8-.3 10.8 4.1 11.2 10 .3 4.9-3.4 9-8.3 9.3-4.1.2-7.6-2.9-7.9-7-.1-1 .7-1.9 1.8-2 1-.1 1.9.7 2 1.8.1 2 1.9 3.6 3.9 3.5 2.8-.2 4.9-2.6 4.8-5.4-.2-3.8-3.4-6.6-7.2-6.4-4.9.3-8.7 4.5-8.4 9.5.4 6.4 5.9 11.4 12.4 11 5.4-.3 11.1-5.4 14.2-11.3-4.5-5.7-14.4-20.4-10.4-36.5 4.8-19.1 23.5-22.8 23.5-22.8s-16.9-35.5 15-52.6c8.5-4.5 16.1-6.1 22.8-5.9-.8-.8-1.5-1.7-2.1-2.7-2.7-4.5-1.5-10.3 2.8-13.4 1.7-1.2 3.9-1.6 5.9-1.2 2.1.5 3.9 1.8 5 3.6 1.9 3.2 1.1 7.3-2 9.5-.9.6-2 .4-2.6-.5s-.4-2 .5-2.6c1.4-1 1.8-2.9.9-4.4-.6-1-1.5-1.6-2.6-1.9-1-.2-2.1 0-3 .6-2.7 1.9-3.4 5.5-1.7 8.3 1.1 1.8 5.3 7.4 12.6 4.8-.2-3.4.3-6.9 1.5-10.1.9-2.2 2.3-4.2 4-5.9 2.2-1.9 4.8-3.2 7.6-3.8 4.1-.8 8.3-.9 12.4-.2 0 0 1.4-11.6 14.4-16.3 19.8-7.2 38.5 6 38.5 6s17.1-19.9 41.6-10.8c21.2 7.9 23.7 22.9 23.9 26.7 3.1.2 6.2-.6 8.7-2.4 6.3-4.6 4-11.3 3.1-13.1-1.3-3-4.8-4.4-7.8-3.3-1 .4-1.8 1.2-2.2 2.2s-.4 2.2.1 3.2c.7 1.6 2.5 2.4 4.2 1.7 1-.4 2.1.1 2.4 1.1.4 1-.1 2.1-1.1 2.4-3.5 1.3-7.4-.3-9-3.7-.9-2-1-4.2-.2-6.2.8-1.9 2.3-3.5 4.3-4.2 4.9-1.9 10.5.4 12.6 5.2 2.4 5.3 2.5 12.7-4.3 17.7-.2.2-.5.3-.7.5 3.6.5 7.3 1.7 9.5 4.1 5.3 5.8 0 13.5 0 13.5s13.2 2.4 17.4 12.5-2.5 15.4 5.2 22.6c7.7 7.1 14.5 19.6 8.2 34z" fill="#3f4d79"/><path d="m-597.3-31.1s.3-72.1 57.4-71.1c57.2 1 33.3 77.4 33.3 77.4z" fill="#fff"/><path d="m-597.3-33.5s-11.2 35.8-59.9 65.5c0 0 54.8 23.8 99.4 6.5z" fill="#ffcfc9"/><path d="m-557.6 38.5c-10.1 3.8-20.8 5.9-31.7 6.2-24.3-21.2-11.8-68.4-8.7-75.8.2-.5.6-1.2.9-2z" fill="#ffcfc9"/><path d="m-597.3-31.1c-3.8 9.1 16.6 69.6 39.7 69.6 26.9 0 77.6-84.6 39.6-104.8-38-20.1-75.7 26.5-79.3 35.2z" fill="#ffcfc9"/><path d="m-639.7 305.3h441.1v28.9h-441.1c-6.8 0-12.3-6.5-12.3-14.4 0-8 5.5-14.5 12.3-14.5z" fill="#fff"/><path d="m-198.6 334.2h-441.1c-6.8 0-12.3-6.5-12.3-14.5 0-8 5.5-14.5 12.3-14.5h441.1" fill="none" stroke="#ffb000" stroke-miterlimit="10" stroke-width="5"/><path d="m-343.8 305.8h-212.6c-3.8 0-6.8-3-6.8-6.8 0-1 .2-2 .7-2.9l65.4-138c3.2-6.8 10-11.1 17.5-11.1h212.6c3.8 0 6.8 3 6.8 6.8 0 1-.2 2-.7 3l-65.4 138c-3.2 6.7-10 11-17.5 11z" fill="none" stroke="#000" stroke-miterlimit="10"/><path d="m-343.1 305.8h-212.6c-3.8 0-6.8-3-6.8-6.8 0-1 .2-2 .7-2.9l65.4-138c3.2-6.8 10-11.1 17.5-11.1h212.6c3.8 0 6.8 3 6.8 6.8 0 1-.2 2-.7 2.9l-65.4 138c-3.1 6.8-10 11.1-17.5 11.1z" fill="#eaeeff" stroke="#6562cf" stroke-miterlimit="10" stroke-width="6"/><path d="m-553.9 302.3 64.1-135.2c3.2-6.6 9.8-10.9 17.2-10.9h198.1c3.7 0 6.7 3 6.7 6.7 0 1-.2 2-.6 2.9l-60.9 128.2c-2 4.3-6.3 7-11 7z" fill="#fff"/><path d="m-454.4 227.6v74.7h43.4z" fill="#eaeeff"/><path d="m-295.8 305.4h-111.6l-43.4-74.7h111.5z" fill="none" stroke="#000" stroke-miterlimit="10"/><path d="m-303.2 305.4h-103.6l-43.5-74.7h103.6z" fill="#c7bfff"/><path d="m-292.9 305.4h-103.6l-43.4-74.7h103.5z" fill="#fff"/><path d="m-295.8 305.8h-111.6l-43.4-74.7h111.5z" fill="none" stroke="#6562cf" stroke-miterlimit="10" stroke-width="6"/></svg>